PathFileType	4	(X/Y/Z)	C:/Users/opensim2020/Desktop/walking_exp_matlab/subject02_walking07_straight_03.trc																																																																																																																																																				
DataRate	CameraRate	NumFrames	NumMarkers	Units	OrigDataRate	OrigDataStartFrame	OrigNumFrames																																																																																																																																																
100	100	8	50	mm	100	2119	203																																																																																																																																																
Frame#	Time	LFHD			RFHD			LBHD			RBHD			C7			T10			CLAV			STRN			RBAK			LSHO			LUPA			LELB			LFRM			LWRA			LWRB			LFIN			RSHO			RUPA			RELB			RFRM			RWRA			RWRB			RFIN			LASI			RASI			LPSI			RPSI			LTHI			LKNE			LTIB			LANK			LHEE			LTOE			RTHI			RKNE			RTIB			RANK			RHEE			RTOE			*39			*40			*41			*42			*43			*44			*45			*46			*47			*48			*49		
		X1	Y1	Z1	X2	Y2	Z2	X3	Y3	Z3	X4	Y4	Z4	X5	Y5	Z5	X6	Y6	Z6	X7	Y7	Z7	X8	Y8	Z8	X9	Y9	Z9	X10	Y10	Z10	X11	Y11	Z11	X12	Y12	Z12	X13	Y13	Z13	X14	Y14	Z14	X15	Y15	Z15	X16	Y16	Z16	X17	Y17	Z17	X18	Y18	Z18	X19	Y19	Z19	X20	Y20	Z20	X21	Y21	Z21	X22	Y22	Z22	X23	Y23	Z23	X24	Y24	Z24	X25	Y25	Z25	X26	Y26	Z26	X27	Y27	Z27	X28	Y28	Z28	X29	Y29	Z29	X30	Y30	Z30	X31	Y31	Z31	X32	Y32	Z32	X33	Y33	Z33	X34	Y34	Z34	X35	Y35	Z35	X36	Y36	Z36	X37	Y37	Z37	X38	Y38	Z38	X39	Y39	Z39	X40	Y40	Z40	X41	Y41	Z41	X42	Y42	Z42	X43	Y43	Z43	X44	Y44	Z44	X45	Y45	Z45	X46	Y46	Z46	X47	Y47	Z47	X48	Y48	Z48	X49	Y49	Z49	X50	Y50	Z50
																																																																																																																																																							
127	1.26	272.24689	1769.5802	1405.82825	289.20517	1749.63025	1547.77515	172.07788	1657.09143	1403.4032	177.40228	1631.71362	1544.20349	149.97513	1530.08948	1470.20105	100.49522	1257.73413	1480.98083	290.20682	1466.4895	1451.23059	344.62115	1294.29504	1467.86707	98.98367	1362.90662	1544.35754	210.14481	1501.11133	1286.07581	155.75954	1307.16443	1211.67834	124.65829	1169.71155	1207.35608	101.93362	1039.77026	1194.42798	126.59116	903.10577	1223.35571	81.94288	917.81738	1191.30261	80.56042	849.48004	1192.36328	243.57468	1508.02954	1649.91565	262.07986	1321.89258	1746.71484	318.53989	1185.70093	1770.81641	388.992	1087.74023	1786.37634	476.50687	986.46796	1760.55652	439.64948	968.39673	1800.5918	497.67346	924.16461	1797.59607	335.66483	999.43988	1357.38489	318.75833	978.85797	1611.46875	121.19952	1041.8042	1421.8324	110.57746	1040.87305	1536.59509	332.63989	699.78192	1272.76111	356.76389	500.9787	1297.02319	313.07687	312.20236	1301.37866	337.75864	88.92982	1320.72595	318.87842	59.1257	1379.67578	483.06229	59.21564	1275.05432	221.13954	670.3634	1646.64624	204.45576	462.57809	1593.07275	148.88365	282.24649	1585.42273	121.62852	92.85487	1534.00293	89.59028	39.91846	1474.00952	269.7811	37.90883	1561.91125	161.94612	1796.93701	1505.09631	2845.2998	1034.09741	-3360.34741	NaN	NaN	NaN	NaN	NaN	NaN	NaN	NaN	NaN	NaN	NaN	NaN	NaN	NaN	NaN	NaN	NaN	NaN	NaN	NaN	NaN	NaN	NaN	NaN	NaN	NaN	NaN
128	1.27	281.19608	1768.70105	1405.81091	298.17041	1748.9502	1547.62329	180.64011	1656.04724	1403.38025	186.23305	1631.18298	1544.48975	158.49243	1529.04492	1470.50391	108.58363	1257.15857	1481.09888	298.68781	1465.6217	1451.56628	352.93161	1293.37708	1468.38928	107.5312	1362.26855	1544.96558	218.03772	1500.15002	1286.625	161.00504	1307.3009	1212.44324	128.88469	1169.87866	1208.61255	104.46172	1040.41455	1195.73499	127.66078	903.19196	1223.87573	82.37989	918.5553	1192.62866	80.39629	850.19116	1193.48511	252.38559	1507.48132	1650.19177	272.46924	1321.88904	1747.3407	330.85617	1186.37695	1771.59436	402.80884	1089.34192	1786.48486	492.32434	989.87988	1760.61194	455.64322	971.10681	1800.75623	514.55194	927.93536	1797.43115	344.24713	998.12976	1357.64026	326.15506	978.07397	1611.86047	129.23431	1040.97009	1421.56189	118.26031	1040.33948	1536.28699	340.93381	698.27582	1273.7373	366.21814	499.68869	1299.25891	330.61627	309.03723	1302.73267	365.94659	86.5508	1321.09839	348.01086	55.91944	1380.03796	512.61603	62.71761	1275.71277	225.71466	669.81549	1646.38379	207.60185	462.55298	1593.19666	150.33871	282.47205	1585.23694	121.92397	93.14175	1533.77991	89.78575	40.18847	1473.77954	269.75565	37.78569	1562.05835	171.00026	1796.2384	1504.95203	2845.18628	1034.08167	-3360.13965	NaN	NaN	NaN	NaN	NaN	NaN	NaN	NaN	NaN	NaN	NaN	NaN	NaN	NaN	NaN	NaN	NaN	NaN	NaN	NaN	NaN	NaN	NaN	NaN	NaN	NaN	NaN
129	1.28	289.77295	1767.58459	1405.44604	307.07764	1748.15552	1547.45374	189.34097	1655.09509	1403.53003	194.88895	1630.38135	1544.29236	167.08191	1528.51563	1471.21411	116.76789	1256.40576	1481.10535	307.18893	1464.59399	1451.78247	361.24997	1292.30176	1468.72913	116.03406	1361.51111	1545.43799	225.96703	1499.10388	1287.04773	166.85513	1307.02295	1213.34241	133.35931	1169.90955	1209.74365	106.43047	1040.88293	1196.45923	129.28931	903.19495	1224.20874	83.92234	919.18866	1193.49341	80.92251	850.73676	1194.49976	261.17624	1506.85632	1650.37659	282.71265	1321.61829	1747.82605	342.94019	1186.83765	1772.29883	416.69568	1091.052	1787.07654	507.55698	993.19513	1760.37354	471.38388	973.63281	1800.74146	530.85046	931.51239	1797.12341	352.70203	996.70605	1357.78064	333.65475	977.32452	1612.14722	137.88329	1039.70581	1421.36975	126.04721	1039.52075	1535.9491	348.89166	696.68903	1274.77344	375.65475	498.40125	1301.36121	347.95169	306.18597	1304.2406	393.23749	85.03955	1321.49731	376.82031	53.53666	1379.79285	541.30005	66.96214	1276.7489	230.62331	669.41473	1646.33813	210.75856	462.26312	1593.0769	152.00407	282.64249	1585.02014	122.27248	93.49266	1533.56897	89.93777	40.38718	1473.2616	269.76349	37.73883	1562.2074	180.02684	1795.6593	1505.13464	2845.8501	1033.97046	-3357.33569	NaN	NaN	NaN	NaN	NaN	NaN	NaN	NaN	NaN	NaN	NaN	NaN	NaN	NaN	NaN	NaN	NaN	NaN	NaN	NaN	NaN	NaN	NaN	NaN	NaN	NaN	NaN
130	1.29	298.69647	1766.56946	1405.37793	316.00833	1747.24756	1547.23938	198.00607	1654.20789	1403.83191	203.68568	1629.604	1544.38843	175.80518	1527.58997	1471.59692	124.93216	1255.60229	1481.01819	315.72543	1463.50085	1451.88818	369.48859	1291.0968	1468.86255	124.2188	1360.86023	1545.9082	234.06946	1497.95605	1287.36963	173.62177	1306.30408	1214.56262	138.31613	1169.74084	1210.80994	111.01833	1040.97168	1197.98267	131.31847	903.12769	1224.4729	85.61709	919.66095	1194.72766	81.88776	851.51135	1194.99475	269.88019	1505.96582	1650.20215	292.98935	1321.2511	1748.30725	354.81625	1187.08765	1772.87598	430.03427	1092.28125	1787.00159	522.55383	995.98822	1760.45239	486.7601	975.7785	1800.46741	546.97266	934.86908	1796.82996	361.26065	995.20685	1357.7959	341.31723	976.6142	1612.44324	146.51402	1038.35181	1421.1051	133.68962	1038.6615	1535.51062	356.57758	694.99902	1275.3988	384.93292	496.92517	1303.27417	364.84366	303.70215	1305.70776	419.47849	84.1911	1321.9458	403.99335	52.37109	1380.37561	568.7179	71.5005	1278.13696	235.86884	669.22083	1646.47363	214.24162	461.90436	1592.90149	153.89201	282.89105	1584.74194	122.70223	93.86371	1533.22754	90.19569	40.79483	1472.84302	269.6658	37.58056	1562.2572	188.97327	1794.9436	1504.83997	2845.94141	1034.14856	-3357.40088	NaN	NaN	NaN	NaN	NaN	NaN	NaN	NaN	NaN	NaN	NaN	NaN	NaN	NaN	NaN	NaN	NaN	NaN	NaN	NaN	NaN	NaN	NaN	NaN	NaN	NaN	NaN
131	1.3	307.48477	1765.29614	1405.00354	324.94028	1746.23462	1546.89355	206.74736	1653.05298	1403.78613	212.53139	1628.63599	1544.37817	183.75951	1526.78491	1472.08936	133.16846	1254.66016	1480.80981	324.31964	1462.27295	1451.94275	377.90189	1289.8551	1469.06201	132.95479	1359.79565	1545.95886	242.27321	1496.76489	1287.58618	179.06738	1305.69312	1214.73608	143.57437	1169.56177	1211.79724	114.10342	1041.33911	1198.81836	134.1785	903.25507	1224.61804	88.11532	920.1225	1195.3855	83.52368	851.78632	1196.0332	279.0155	1505.02136	1650.56738	302.95932	1320.56274	1748.5498	366.255	1186.85913	1773.04114	443.20313	1093.43347	1787.04297	537.22192	998.70709	1760.21973	501.80069	977.78076	1800.20728	562.85309	938.08679	1796.45569	369.89151	993.6756	1357.84595	348.82068	975.81415	1612.59314	154.99496	1036.92114	1420.7218	141.51212	1037.41528	1534.96667	363.87869	693.13776	1276.14478	393.65005	495.24722	1304.89197	381.35489	301.35318	1307.12854	444.72006	83.96177	1322.6272	430.02679	51.28577	1380.77185	594.9024	75.8407	1279.84375	241.12067	668.76581	1646.43835	218.00812	461.48779	1592.78284	155.88481	283.034	1584.47571	123.15356	94.27415	1532.89221	90.57594	41.46611	1472.57153	269.67191	37.47637	1562.36853	197.7301	1793.82837	1504.38538	2845.15063	1034.06116	-3360.36914	NaN	NaN	NaN	NaN	NaN	NaN	NaN	NaN	NaN	NaN	NaN	NaN	NaN	NaN	NaN	NaN	NaN	NaN	NaN	NaN	NaN	NaN	NaN	NaN	NaN	NaN	NaN
132	1.31	316.1597	1763.90735	1404.69556	333.8645	1745.10315	1546.52441	215.44476	1651.81348	1403.70911	221.56949	1627.68372	1544.6499	192.1783	1525.63245	1472.11206	141.47562	1253.63647	1480.54919	332.94858	1461.01855	1451.91516	386.27707	1288.49573	1468.99194	141.60027	1358.75269	1546.06482	250.47739	1495.44934	1287.50842	186.20468	1304.92944	1215.54724	149.30269	1169.15222	1212.63196	118.2924	1040.99353	1199.45251	137.04205	902.82129	1224.6676	91.03476	920.414	1196.07568	85.61024	852.10852	1196.66699	287.76404	1503.86218	1650.50903	312.85541	1319.67712	1748.56226	377.90848	1186.89417	1773.59253	456.29114	1094.56812	1787.31726	551.46826	1001.1897	1759.83118	516.4657	979.58936	1799.79211	578.13281	941.00183	1795.94226	378.55951	992.18097	1357.86938	356.8093	974.98676	1612.93848	163.00685	1035.57751	1420.26086	149.24445	1036.04968	1534.28052	371.13965	691.30487	1277.09302	402.64615	493.47845	1306.54309	397.28079	299.32953	1308.46692	468.76038	84.33343	1323.54956	454.42737	51.63396	1381.51672	619.77118	79.8317	1281.94336	246.49364	667.9931	1646.22644	222.03923	461.07336	1592.8667	158.24188	283.32153	1584.37195	123.72974	94.82899	1532.6261	90.89716	42.08379	1472.07434	269.83881	37.63127	1562.7041	206.75893	1792.66431	1504.42505	2845.2771	1033.90039	-3360.33521	NaN	NaN	NaN	NaN	NaN	NaN	NaN	NaN	NaN	NaN	NaN	NaN	NaN	NaN	NaN	NaN	NaN	NaN	NaN	NaN	NaN	NaN	NaN	NaN	NaN	NaN	NaN
133	1.32	324.88065	1762.53857	1404.17334	342.76706	1743.93469	1546.10266	224.19656	1650.41418	1403.49048	230.43626	1626.48572	1544.4353	200.71353	1524.72119	1472.31226	149.90955	1252.52319	1480.23926	341.62555	1459.62561	1451.7771	394.75604	1287.07556	1468.82764	150.13766	1357.63831	1546.02112	258.89716	1494.20923	1287.45593	192.94473	1304.16968	1215.70276	155.30833	1168.68982	1213.32483	122.29578	1041.20435	1199.78723	140.67116	902.4762	1224.63818	94.56033	920.56244	1196.66699	88.35345	852.35364	1197.04114	296.54398	1502.62183	1650.27039	322.49673	1318.47375	1748.24158	388.95206	1186.34241	1773.5437	468.72583	1095.073	1786.93188	565.32648	1003.40692	1759.33899	530.77875	981.14801	1799.17834	593.0401	943.78143	1795.36292	387.29584	990.60754	1357.9458	364.70474	974.07837	1613.28967	171.61	1034.0448	1419.78552	157.1106	1034.63342	1533.52515	379.056	689.47998	1277.49841	412.01022	491.74438	1308.17212	412.7569	297.4046	1310.02515	491.40192	84.65157	1324.68176	477.8681	51.66565	1382.64087	643.46558	83.56459	1284.63391	252.4688	667.61462	1646.42847	226.30524	460.54996	1592.79785	160.32887	283.41013	1584.07727	124.0358	95.11501	1532.03455	90.69276	43.11175	1471.51465	269.91791	37.55685	1562.86536	215.52524	1791.28259	1503.75488	2845.93799	1034.2395	-3357.26465	NaN	NaN	NaN	NaN	NaN	NaN	NaN	NaN	NaN	NaN	NaN	NaN	NaN	NaN	NaN	NaN	NaN	NaN	NaN	NaN	NaN	NaN	NaN	NaN	NaN	NaN	NaN
134	1.33	333.67349	1761.16064	1403.72852	351.70502	1742.72131	1545.60864	232.9664	1649.05493	1403.24377	239.12364	1625.22705	1543.89648	209.97061	1523.42273	1472.1626	158.44417	1251.32214	1479.88354	350.31216	1458.23877	1451.57532	403.26685	1285.64111	1468.6261	158.7131	1356.4032	1545.8418	267.58722	1492.93591	1287.51001	201.30704	1303.0166	1216.99048	161.78529	1168.09204	1213.91516	128.28766	1040.85107	1200.65186	145.25745	902.19153	1224.5083	98.4333	920.60944	1197.4469	91.73207	852.39423	1197.34607	305.69742	1501.21216	1650.13428	332.26208	1317.35291	1748.20703	399.94748	1185.78699	1773.57251	481.18649	1095.74292	1786.93689	579.04993	1005.48206	1758.8855	544.63495	982.44421	1798.50085	607.56439	946.34839	1794.76819	396.15048	989.16705	1358.15027	372.43137	973.04529	1613.61902	180.28612	1032.54944	1419.28748	165.18077	1033.11621	1532.68127	386.75632	687.6825	1278.39954	421.24445	489.9621	1309.62988	427.81104	296.12811	1311.25012	513.04053	85.72369	1326.18396	499.50632	52.75309	1384.02954	665.8288	86.80878	1287.76941	258.38641	666.75653	1646.29529	230.5824	459.82855	1592.68311	162.80025	283.66599	1584.01013	124.62981	95.66213	1531.81567	91.39603	43.38139	1471.14478	269.99994	37.50894	1563.00977	224.36908	1790.05322	1503.34253	2845.25269	1033.98877	-3360.31592	NaN	NaN	NaN	NaN	NaN	NaN	NaN	NaN	NaN	NaN	NaN	NaN	NaN	NaN	NaN	NaN	NaN	NaN	NaN	NaN	NaN	NaN	NaN	NaN	NaN	NaN	NaN
